# xmcd
#
# Track frame offsets:
#	150
#	13815
#	27398
#	40711
#	50019
#	62904
#	70532
#	83755
#	95140
#	104755
#	127165
#	136743
#
# Disc length: 1943 seconds
#
# Revision: 1
# Processed by: cddbd v1.5.2PL0 Copyright (c) Steve Scherf et al.
# Submitted via: audiograbber 1.83.01
#
DISCID=aa07950c
DTITLE=Johnny Cash - Orange Blossom Special
DYEAR=1965
DGENRE=Country
TTITLE0=Orange Blossom Special
TTITLE1=Long Black Veil
TTITLE2=It Ain't Me Babe
TTITLE3=The Wall
TTITLE4=Don't Think Twice, It's All Right
TTITLE5=You Wild Colorado
TTITLE6=Mama, You Been On My Mind
TTITLE7=When It's Springtime In Alaska ( It's Forty Below )
TTITLE8=All Of God's Children Ain't Free
TTITLE9=Danny Boy
TTITLE10=Wildwood Flower
TTITLE11=Amen
EXTD=
EXTT0=
EXTT1=
EXTT2=
EXTT3=
EXTT4=
EXTT5=
EXTT6=
EXTT7=
EXTT8=
EXTT9=
EXTT10=
EXTT11=
PLAYORDER=
